<?xml version="1.0" standalone="no"?>
<svg version="1.0" xmlns="http://www.w3.org/2000/svg"
 width="476" height="424" viewBox="0 0 476 424"
 preserveAspectRatio="xMidYMid meet">
<g transform="translate(0,424) scale(0.1,-0.1)"
fill="#fff" stroke="#000">
<path d="M1015 3815 c-329 -55 -620 -253 -773 -525 -64 -115 -108 -291 -113
-450 l-2 -75 346 -3 347 -2 0 54 c0 104 66 226 157 289 64 44 154 67 248 63
115 -5 186 -34 256 -105 74 -75 103 -149 95 -238 -11 -125 -18 -132 -486 -497
-173 -136 -346 -271 -385 -301 -38 -30 -149 -116 -245 -191 -96 -76 -203 -162
-238 -191 l-62 -55 0 -444 c0 -347 3 -446 13 -449 6 -2 459 -6 1005 -8 l993
-4 -3 331 -3 330 -578 -1 c-337 -1 -577 2 -575 7 4 12 89 78 500 387 l356 268
-41 10 c-86 21 -133 68 -148 148 -13 71 30 150 98 182 33 16 64 18 231 18
l193 -1 24 51 c87 192 106 426 51 637 -104 399 -415 680 -841 760 -92 18 -328
20 -420 5z"/>
<path d="M3789 3682 c-71 -75 -238 -263 -374 -422 -92 -108 -276 -310 -588
-648 l-179 -193 6 -107 c3 -59 5 -171 5 -249 l1 -143 624 0 c344 0 627 -3 629
-7 5 -9 -52 -245 -77 -321 -15 -45 -57 -198 -70 -254 -6 -27 -5 -28 38 -28 37
0 45 -3 49 -22 3 -13 6 -158 7 -323 1 -208 5 -302 13 -307 6 -3 154 -7 329 -8
l318 -1 0 341 0 340 53 0 54 0 6 152 c4 83 7 207 7 275 l0 123 -55 0 -55 0 -1
718 c-1 607 -3 1003 -8 1125 l-1 27 -333 0 -334 0 -64 -68z m52 -979 c0 -93 2
-262 4 -378 2 -115 2 -217 -1 -226 -4 -15 -44 -16 -389 -17 -212 0 -385 2
-385 4 0 25 737 782 763 784 4 0 7 -75 8 -167z"/>
<path d="M1807 2232 c-21 -23 -22 -66 -1 -86 12 -13 41 -16 142 -17 70 -1 139
0 155 1 15 1 27 0 27 -2 1 -24 225 -892 238 -918 9 -19 29 -41 44 -48 20 -9
167 -14 602 -18 l575 -5 10 38 c5 21 13 50 17 66 l6 27 -571 0 -571 0 -11 28
c-18 45 -61 216 -165 642 -59 246 -66 269 -84 284 -11 10 -70 15 -206 20 -177
6 -192 5 -207 -12z"/>
<path d="M2375 2043 c3 -21 41 -174 83 -340 l77 -303 550 -2 549 -3 24 80 c13
44 27 94 32 110 5 17 18 62 30 100 12 39 24 78 27 88 5 16 -27 17 -568 19
-316 0 -582 1 -591 0 -19 -2 -18 -4 -64 181 l-26 107 -65 0 -65 0 7 -37z"/>
<path d="M2575 981 c-39 -23 -83 -76 -91 -108 -12 -45 4 -123 32 -160 48 -63
140 -81 218 -43 57 28 86 74 89 143 2 50 4 56 27 60 21 3 320 2 396 -2 18 -1
22 -9 27 -59 9 -104 59 -161 149 -170 106 -10 198 69 198 170 -1 84 -47 149
-127 176 -22 7 -177 11 -460 12 -401 0 -430 -1 -458 -19z"/>
</g>
</svg>
